# xmcd CD database file
#
# Track frame offsets:
#	150
#	21225
#	37575
#	58650
#	74775
#	88125
#	105525
#	121875
#	141675
#	165825
#	180225
#	203775
#
# Disc length: 2864 seconds
#
# Revision: 1
# Processed by: cddbd v1.5.2PL0 Copyright (c) Steve Scherf et al.
# Submitted via: CDex 1.70beta2
#
DISCID=a10b2e0c
DTITLE=Terry Hanck - Always
DYEAR=1900
DGENRE=Blues
TTITLE0=Cupid Must Be Stupid
TTITLE1=The First Time Around
TTITLE2=Good Good Rockin' Goin' On
TTITLE3=My Last Teardrop
TTITLE4=Stingy
TTITLE5=When I Get My Shit Together
TTITLE6=Quicksand
TTITLE7=Always
TTITLE8=Good Kind Of Lovin'
TTITLE9=Live To Love
TTITLE10=Peace Of Mind
TTITLE11=Deep Fried Twinkies
EXTD=
EXTT0=
EXTT1=
EXTT2=
EXTT3=
EXTT4=
EXTT5=
EXTT6=
EXTT7=
EXTT8=
EXTT9=
EXTT10=
EXTT11=
PLAYORDER=
